<svg width="632" height="682" viewBox="0 0 632 682" fill="none" xmlns="http://www.w3.org/2000/svg">
<path fill-rule="evenodd" clip-rule="evenodd" d="M289.862 199.138C386.746 140.164 512.242 146.478 613.337 198.087C715.541 250.261 783.924 350.032 806.094 462.673C828.308 575.533 812.094 702.715 728.093 781.113C651.08 852.988 533.644 830.366 429.538 814.109C345.58 800.999 265.278 769.705 215.137 701.01C165.641 633.199 162.398 548.067 174.758 465.055C189.728 364.512 203.11 251.945 289.862 199.138Z" fill="#F8F0F0"/>
<path fill-rule="evenodd" clip-rule="evenodd" d="M253.862 154.138C350.746 95.1637 476.242 101.478 577.337 153.087C679.541 205.261 747.924 305.032 770.094 417.673C792.308 530.533 776.094 657.715 692.093 736.113C615.08 807.988 497.644 785.366 393.538 769.109C309.58 755.999 229.278 724.705 179.137 656.01C129.641 588.199 126.398 503.067 138.758 420.055C153.728 319.512 167.11 206.945 253.862 154.138Z" stroke="#F8F0F0" stroke-width="6"/>
</svg>
