<svg width="432" height="531" viewBox="0 0 432 531" fill="none" xmlns="http://www.w3.org/2000/svg">
<path fill-rule="evenodd" clip-rule="evenodd" d="M270.107 10.6962C355.356 4.04599 454.018 -14.5172 510.847 49.319C569.415 115.109 547.156 214.001 527.506 299.834C507.873 385.596 484.922 484.371 403.552 517.996C324.698 550.581 245.386 488.601 170.758 447.256C104.073 410.312 30.5329 373.85 10.6264 300.308C-10.0253 224.013 19.5422 142.417 72.3034 83.5295C121.613 28.4937 196.401 16.446 270.107 10.6962Z" stroke="#EFD5CD" stroke-width="6"/>
<path fill-rule="evenodd" clip-rule="evenodd" d="M300.329 22.3713C385.65 16.0018 484.393 -1.77771 541.27 59.3637C599.887 122.376 577.609 217.094 557.943 299.303C538.293 381.446 515.323 476.05 433.886 508.256C354.966 539.466 275.587 480.103 200.897 440.503C134.156 405.118 60.555 370.195 40.6319 299.758C19.963 226.684 49.5551 148.532 102.36 92.1301C151.711 39.4176 226.562 27.8784 300.329 22.3713Z" fill="#EFD5CD"/>
</svg>
