<svg width="467" height="399" viewBox="0 0 467 399" fill="none" xmlns="http://www.w3.org/2000/svg">
<path fill-rule="evenodd" clip-rule="evenodd" d="M-65.6733 -199.886C-1.09154 -252.346 67.6428 -321.761 148.441 -302.068C231.713 -281.774 268.569 -190.283 300.293 -110.693C331.991 -31.1677 368.228 60.6108 321.667 132.524C276.546 202.215 178.771 196.44 96.1566 204.598C22.3352 211.887 -56.7082 223.354 -113.309 175.475C-172.03 125.804 -193.47 44.1227 -183.784 -32.2009C-174.732 -103.532 -121.51 -154.53 -65.6733 -199.886Z" fill="#F8F0F0"/>
<path fill-rule="evenodd" clip-rule="evenodd" d="M-41.6733 -161.886C22.9085 -214.346 91.6428 -283.761 172.441 -264.068C255.713 -243.774 292.569 -152.283 324.293 -72.6933C355.991 6.83228 392.228 98.6108 345.667 170.524C300.546 240.215 202.771 234.44 120.157 242.598C46.3352 249.887 -32.7082 261.354 -89.3094 213.475C-148.03 163.804 -169.47 82.1227 -159.784 5.79905C-150.732 -65.5318 -97.5104 -116.53 -41.6733 -161.886Z" stroke="#F8F0F0" stroke-width="6"/>
</svg>
