<svg width="477" height="585" viewBox="0 0 477 585" fill="none" xmlns="http://www.w3.org/2000/svg">
<path fill-rule="evenodd" clip-rule="evenodd" d="M177.371 46.7993C249.028 55.5993 320.674 68.0449 369.228 121.637C421.953 179.833 452.516 257.531 438.37 334.88C423.51 416.132 367.171 480.669 295.974 522.179C215.892 568.87 120.451 607.785 36.0889 569.421C-49.8135 530.356 -83.1273 431.807 -105.089 339.794C-127.445 246.127 -150.819 135.203 -84.0736 65.9685C-20.1641 -0.324643 86.1194 35.5929 177.371 46.7993Z" fill="#EFD5CD"/>
<path fill-rule="evenodd" clip-rule="evenodd" d="M209.371 22.7993C281.028 31.5993 352.674 44.0449 401.228 97.6373C453.953 155.833 484.516 233.531 470.37 310.88C455.51 392.132 399.171 456.669 327.974 498.179C247.892 544.87 152.451 583.785 68.0889 545.421C-17.8135 506.356 -51.1273 407.807 -73.0889 315.794C-95.445 222.127 -118.819 111.203 -52.0736 41.9685C11.8359 -24.3246 118.119 11.5929 209.371 22.7993Z" stroke="#EFD5CD" stroke-width="6"/>
</svg>
