<svg width="1439" height="288" viewBox="0 0 1439 288" fill="none" xmlns="http://www.w3.org/2000/svg">
<path d="M0 160L47.9667 149.3C95.9333 139 191.867 117 287.8 117.3C383.733 117 479.667 139 575.6 165.3C671.533 192 767.467 224 863.4 224C959.333 224 1055.27 192 1151.2 197.3C1247.13 203 1343.07 245 1391.03 266.7L1439 288V0H1391.03C1343.07 0 1247.13 0 1151.2 0C1055.27 0 959.333 0 863.4 0C767.467 0 671.533 0 575.6 0C479.667 0 383.733 0 287.8 0C191.867 0 95.9333 0 47.9667 0H0V160Z" fill="#EFD5CD"/>
</svg>
