<svg width="1439" height="288" viewBox="0 0 1439 288" fill="none" xmlns="http://www.w3.org/2000/svg">
<path d="M1439 128L1391.03 138.7C1343.07 149 1247.13 171 1151.2 170.7C1055.27 171 959.333 149 863.4 122.7C767.467 96.0001 671.533 64.0001 575.6 64.0001C479.667 64.0001 383.733 96.0001 287.8 90.7001C191.867 85.0001 95.9333 43.0001 47.9667 21.3001L-2.51778e-05 0.000125801L0 288L47.9667 288C95.9333 288 191.867 288 287.8 288C383.733 288 479.667 288 575.6 288C671.533 288 767.467 288 863.4 288C959.333 288 1055.27 288 1151.2 288C1247.13 288 1343.07 288 1391.03 288L1439 288L1439 128Z" fill="#EFD5CD"/>
</svg>
